<?xml version="1.0" encoding="utf-8"?>
<svg width="800px" height="800px" viewBox="0 0 800 800" version="1.1" xmlns:xlink="http://www.w3.org/1999/xlink" xmlns="http://www.w3.org/2000/svg">
  <defs>
    <path d="M0 0L800 0L800 800L0 800L0 0Z" id="path_1" />
    <clipPath id="clip_1">
      <use xlink:href="#path_1" />
    </clipPath>
  </defs>
  <g id="discord-icon-svgrepo-com" clip-path="url(#clip_1)">
    <path d="M0 0L800 0L800 800L0 800L0 0Z" id="discord-icon-svgrepo-com" fill="none" fill-rule="evenodd" stroke="none" />
    <path d="M677.676 140.927C625.891 116.698 570.519 99.0891 512.63 89.0625C505.52 101.916 497.214 119.205 491.488 132.958C429.95 123.703 368.978 123.703 308.572 132.958C302.846 119.205 294.352 101.916 287.179 89.0625C229.227 99.0891 173.792 116.762 122.006 141.055C17.5548 298.895 -10.7604 452.815 3.39722 604.549C72.6751 656.284 139.814 687.711 205.819 708.277C222.116 685.847 236.651 662.004 249.173 636.876C225.325 627.814 202.484 616.632 180.902 603.65C186.628 599.408 192.229 594.973 197.639 590.41C329.273 651.979 472.297 651.979 602.358 590.41C607.832 594.973 613.432 599.408 619.095 603.65C597.449 616.695 574.546 627.878 550.699 636.941C563.22 662.004 577.692 685.912 594.052 708.34C660.121 687.775 727.322 656.349 796.6 604.549C813.212 428.651 768.222 276.144 677.676 140.927L677.676 140.927ZM267.106 511.234C227.591 511.234 195.185 474.344 195.185 429.422C195.185 384.499 226.899 347.546 267.106 347.546C307.314 347.546 339.719 384.434 339.027 429.422C339.089 474.344 307.314 511.234 267.106 511.234L267.106 511.234ZM532.891 511.234C493.376 511.234 460.971 474.344 460.971 429.422C460.971 384.499 492.683 347.546 532.891 347.546C573.099 347.546 605.504 384.434 604.812 429.422C604.812 474.344 573.099 511.234 532.891 511.234L532.891 511.234Z" id="Group" fill="#5865F2" fill-rule="evenodd" stroke="none" />
    <path d="M245.538 308.309L329.576 330.826Q329.765 330.877 329.952 330.937Q330.139 330.997 330.323 331.067Q330.507 331.136 330.687 331.214Q330.867 331.292 331.043 331.379Q331.219 331.466 331.391 331.561Q331.563 331.656 331.729 331.76Q331.896 331.864 332.058 331.975Q332.219 332.087 332.375 332.207Q332.531 332.326 332.68 332.453Q332.83 332.58 332.973 332.715Q333.117 332.849 333.253 332.99Q333.39 333.131 333.519 333.279Q333.649 333.426 333.771 333.58Q333.893 333.734 334.007 333.894Q334.122 334.053 334.228 334.218Q334.334 334.383 334.433 334.553Q334.531 334.723 334.621 334.898Q334.71 335.073 334.791 335.252Q334.872 335.43 334.945 335.613Q335.017 335.796 335.08 335.982Q335.143 336.168 335.197 336.356Q335.251 336.545 335.295 336.736Q335.34 336.928 335.375 337.121Q335.41 337.314 335.436 337.509Q335.462 337.703 335.478 337.899Q335.494 338.095 335.5 338.291Q335.507 338.487 335.503 338.684Q335.5 338.88 335.487 339.076Q335.474 339.272 335.452 339.467Q335.43 339.662 335.398 339.856Q335.366 340.05 335.324 340.242Q335.283 340.433 335.232 340.623L332.643 350.284C331.5 354.552 327.475 356.212 323.562 354.161C314.714 349.525 298.636 341.805 282.025 337.354C265.625 332.959 248.705 331.751 239.08 331.437C234.665 331.294 232.009 327.893 233.153 323.626L235.741 313.965Q235.792 313.775 235.852 313.588Q235.912 313.401 235.982 313.217Q236.051 313.034 236.129 312.854Q236.207 312.673 236.294 312.497Q236.381 312.321 236.476 312.149Q236.571 311.978 236.675 311.811Q236.779 311.644 236.89 311.483Q237.002 311.321 237.122 311.166Q237.241 311.01 237.368 310.86Q237.495 310.71 237.63 310.567Q237.764 310.424 237.905 310.287Q238.046 310.151 238.194 310.021Q238.341 309.892 238.495 309.77Q238.649 309.648 238.809 309.533Q238.968 309.419 239.133 309.312Q239.298 309.206 239.468 309.108Q239.638 309.01 239.813 308.92Q239.988 308.83 240.167 308.749Q240.345 308.668 240.528 308.596Q240.711 308.524 240.897 308.461Q241.083 308.397 241.271 308.344Q241.46 308.29 241.651 308.245Q241.843 308.2 242.036 308.165Q242.229 308.13 242.424 308.105Q242.618 308.079 242.814 308.063Q243.01 308.047 243.206 308.04Q243.402 308.034 243.599 308.037Q243.795 308.04 243.991 308.053Q244.187 308.066 244.382 308.089Q244.577 308.111 244.771 308.143Q244.965 308.175 245.157 308.216Q245.348 308.258 245.538 308.309Z" id="Rectangle-3" fill="#333333" fill-rule="evenodd" stroke="none" />
    <path d="M469.997 330.588L554.035 308.07Q554.224 308.019 554.416 307.978Q554.608 307.936 554.802 307.904Q554.996 307.872 555.191 307.85Q555.386 307.828 555.582 307.815Q555.778 307.802 555.974 307.799Q556.17 307.795 556.367 307.802Q556.563 307.808 556.758 307.824Q556.954 307.84 557.149 307.866Q557.343 307.892 557.537 307.927Q557.73 307.962 557.921 308.007Q558.112 308.051 558.301 308.105Q558.49 308.159 558.676 308.222Q558.862 308.285 559.044 308.357Q559.227 308.43 559.406 308.511Q559.585 308.592 559.76 308.681Q559.934 308.771 560.104 308.869Q560.274 308.967 560.439 309.074Q560.604 309.18 560.764 309.295Q560.924 309.409 561.077 309.531Q561.231 309.653 561.379 309.783Q561.527 309.912 561.668 310.049Q561.809 310.185 561.943 310.328Q562.077 310.472 562.204 310.622Q562.331 310.771 562.451 310.927Q562.57 311.083 562.682 311.244Q562.794 311.406 562.898 311.573Q563.001 311.739 563.097 311.911Q563.192 312.083 563.279 312.259Q563.366 312.435 563.444 312.615Q563.522 312.795 563.591 312.979Q563.66 313.163 563.72 313.35Q563.78 313.537 563.831 313.726L566.42 323.387C567.563 327.655 564.908 331.105 560.494 331.286C550.513 331.694 532.729 333.047 516.118 337.498C499.718 341.893 484.46 349.306 475.969 353.847C472.073 355.93 468.073 354.313 466.93 350.046L464.341 340.385Q464.29 340.195 464.249 340.003Q464.207 339.811 464.175 339.617Q464.143 339.424 464.121 339.229Q464.098 339.033 464.085 338.837Q464.073 338.642 464.069 338.445Q464.066 338.249 464.073 338.053Q464.079 337.856 464.095 337.661Q464.111 337.465 464.137 337.27Q464.162 337.076 464.198 336.882Q464.233 336.689 464.277 336.498Q464.322 336.307 464.376 336.118Q464.43 335.929 464.493 335.743Q464.556 335.557 464.628 335.375Q464.7 335.192 464.781 335.013Q464.862 334.834 464.952 334.66Q465.042 334.485 465.14 334.315Q465.238 334.145 465.345 333.98Q465.451 333.815 465.565 333.655Q465.68 333.495 465.802 333.342Q465.924 333.188 466.053 333.04Q466.183 332.893 466.319 332.751Q466.456 332.61 466.599 332.476Q466.743 332.342 466.892 332.215Q467.042 332.088 467.198 331.968Q467.354 331.849 467.515 331.737Q467.677 331.625 467.843 331.522Q468.01 331.418 468.182 331.322Q468.353 331.227 468.529 331.14Q468.706 331.053 468.886 330.975Q469.066 330.897 469.25 330.828Q469.434 330.759 469.62 330.699Q469.807 330.639 469.997 330.588Z" id="Rectangle-4" fill="#333333" fill-rule="evenodd" stroke="none" />
  </g>
</svg>